<svg width="24" height="19" viewBox="0 0 24 19" fill="none" xmlns="http://www.w3.org/2000/svg">
<path d="M9.62866 3.06412C9.97885 3.21976 10.154 3.49214 10.154 3.88124V15.0875C10.154 15.4766 9.97885 15.7489 9.62866 15.9046C9.47302 15.9824 9.33683 16.0213 9.2201 16.0213C9.06446 16.0213 8.8699 15.9435 8.63644 15.7879L4.84267 12.7528H1.74928C1.12671 12.7528 0.81543 12.4416 0.81543 11.819V7.14972C0.81543 6.52716 1.12671 6.21587 1.74928 6.21587H4.84267L8.63644 3.12249C8.79208 3.00576 8.98664 2.94739 9.2201 2.94739C9.33683 2.94739 9.47302 2.9863 9.62866 3.06412ZM23.1695 9.48435C23.1695 13.0252 21.9049 16.0602 19.3757 18.5894C19.2201 18.7451 19.045 18.8229 18.8504 18.8229C18.6948 18.8229 18.5392 18.7451 18.3835 18.5894C18.0333 18.2781 18.0333 17.9474 18.3835 17.5972C20.6403 15.4182 21.7687 12.7139 21.7687 9.48435C21.7687 6.25478 20.6403 3.5505 18.3835 1.37152C18.0333 1.02132 18.0333 0.690582 18.3835 0.379297C18.7337 0.0680141 19.0645 0.0680141 19.3757 0.379297C21.9049 2.90848 23.1695 5.9435 23.1695 9.48435ZM16.8076 2.77229C18.5975 4.64 19.4925 6.87735 19.4925 9.48435C19.4925 12.0914 18.5975 14.3287 16.8076 16.1964C16.652 16.3521 16.4769 16.4299 16.2824 16.4299C16.1267 16.4299 15.9711 16.3521 15.8154 16.1964C15.4652 15.8462 15.4458 15.5155 15.7571 15.2042C17.3135 13.6478 18.0917 11.7412 18.0917 9.48435C18.0917 7.22755 17.3135 5.32093 15.7571 3.76451C15.4458 3.45323 15.4652 3.12249 15.8154 2.77229C16.1656 2.4221 16.4964 2.4221 16.8076 2.77229ZM13.831 5.16529C14.9983 6.41043 15.582 7.85011 15.582 9.48435C15.582 11.1186 14.9983 12.5583 13.831 13.8034C13.7143 13.9202 13.5392 13.9785 13.3057 13.9785C13.1111 13.9785 12.9555 13.9202 12.8388 13.8034C12.5275 13.4921 12.5275 13.1614 12.8388 12.8112C13.7337 11.9163 14.1812 10.8073 14.1812 9.48435C14.1812 8.1614 13.7337 7.05245 12.8388 6.15751C12.5275 5.80731 12.5275 5.47657 12.8388 5.16529C13.1501 4.854 13.4808 4.854 13.831 5.16529Z" fill="black"/>
</svg>
