<svg width="12" height="10" viewBox="0 0 12 10" fill="none" xmlns="http://www.w3.org/2000/svg">
<path d="M11.0311 0.443819C10.863 0.968731 10.5062 1.41066 10.0409 1.6892C10.4966 1.63495 10.9301 1.51359 11.3343 1.33454C11.0324 1.7859 10.6503 2.18259 10.209 2.49887C10.214 2.59557 10.2159 2.69314 10.2159 2.79049C10.2159 5.76713 7.95028 9.19922 3.80716 9.19922C2.53498 9.19922 1.35135 8.8259 0.354492 8.18713C0.530749 8.20772 0.709794 8.21865 0.891627 8.21865C1.94703 8.21865 2.91859 7.85842 3.68923 7.2546C2.70395 7.23616 1.87219 6.58495 1.58551 5.69015C1.72338 5.71631 1.86404 5.73068 2.00942 5.73068C2.21527 5.73068 2.41426 5.70323 2.60295 5.65177C1.57307 5.44464 0.796422 4.53397 0.796422 3.44298V3.41489C1.10026 3.58364 1.44742 3.68528 1.81666 3.6975C1.21284 3.29417 0.814863 2.60458 0.814863 1.823C0.814863 1.41002 0.925291 1.02298 1.11956 0.690837C2.2305 2.05351 3.89015 2.95045 5.76207 3.04436C5.72369 2.87969 5.70375 2.7075 5.70375 2.53103C5.70375 1.2878 6.71241 0.27914 7.9565 0.27914C8.60406 0.27914 9.18944 0.552318 9.6005 0.990602C10.1136 0.889179 10.5961 0.701772 11.0311 0.443819Z" fill="white"/>
</svg>
